<mxfile host="Electron" modified="2024-06-24T04:41:39.181Z" agent="Mozilla/5.0 (Windows NT 10.0; Win64; x64) AppleWebKit/537.36 (KHTML, like Gecko) draw.io/24.6.1 Chrome/124.0.6367.207 Electron/30.0.6 Safari/537.36" etag="HWylNIbFMJOEyZ7NcqdZ" version="24.6.1" type="device">
  <diagram name="Page-1" id="5RI1zn6HGizpm1qqq18l">
    <mxGraphModel dx="2074" dy="1197" grid="1" gridSize="10" guides="1" tooltips="1" connect="1" arrows="1" fold="1" page="1" pageScale="1" pageWidth="827" pageHeight="1169" math="0" shadow="0">
      <root>
        <mxCell id="0" />
        <mxCell id="1" parent="0" />
        <mxCell id="zMmYYsfQ7GIVvWLXZn8o-1" value="Start" style="shape=umlFrame;whiteSpace=wrap;html=1;pointerEvents=0;" vertex="1" parent="1">
          <mxGeometry x="40" y="40" width="290" height="260" as="geometry" />
        </mxCell>
        <mxCell id="zMmYYsfQ7GIVvWLXZn8o-2" value="StartManager" style="verticalAlign=top;align=left;spacingTop=8;spacingLeft=2;spacingRight=12;shape=cube;size=10;direction=south;fontStyle=4;html=1;whiteSpace=wrap;" vertex="1" parent="1">
          <mxGeometry x="60" y="90" width="250" height="180" as="geometry" />
        </mxCell>
        <mxCell id="zMmYYsfQ7GIVvWLXZn8o-3" value="Start.Manager.&lt;span style=&quot;background-color: initial;&quot;&gt;StartManager&lt;/span&gt;" style="swimlane;fontStyle=1;align=center;verticalAlign=top;childLayout=stackLayout;horizontal=1;startSize=30;horizontalStack=0;resizeParent=1;resizeParentMax=0;resizeLast=0;collapsible=1;marginBottom=0;whiteSpace=wrap;html=1;" vertex="1" parent="1">
          <mxGeometry x="80" y="130" width="200" height="116" as="geometry" />
        </mxCell>
        <mxCell id="zMmYYsfQ7GIVvWLXZn8o-4" value="" style="line;strokeWidth=1;fillColor=none;align=left;verticalAlign=middle;spacingTop=-1;spacingLeft=3;spacingRight=3;rotatable=0;labelPosition=right;points=[];portConstraint=eastwest;strokeColor=inherit;" vertex="1" parent="zMmYYsfQ7GIVvWLXZn8o-3">
          <mxGeometry y="30" width="200" height="8" as="geometry" />
        </mxCell>
        <mxCell id="zMmYYsfQ7GIVvWLXZn8o-5" value="Start(void) : void" style="text;strokeColor=none;fillColor=none;align=left;verticalAlign=top;spacingLeft=4;spacingRight=4;overflow=hidden;rotatable=0;points=[[0,0.5],[1,0.5]];portConstraint=eastwest;whiteSpace=wrap;html=1;" vertex="1" parent="zMmYYsfQ7GIVvWLXZn8o-3">
          <mxGeometry y="38" width="200" height="26" as="geometry" />
        </mxCell>
        <mxCell id="zMmYYsfQ7GIVvWLXZn8o-6" value="PushVrButton(void) : void" style="text;strokeColor=none;fillColor=none;align=left;verticalAlign=top;spacingLeft=4;spacingRight=4;overflow=hidden;rotatable=0;points=[[0,0.5],[1,0.5]];portConstraint=eastwest;whiteSpace=wrap;html=1;" vertex="1" parent="zMmYYsfQ7GIVvWLXZn8o-3">
          <mxGeometry y="64" width="200" height="26" as="geometry" />
        </mxCell>
        <mxCell id="zMmYYsfQ7GIVvWLXZn8o-7" value="PushPcButton(void) : void" style="text;strokeColor=none;fillColor=none;align=left;verticalAlign=top;spacingLeft=4;spacingRight=4;overflow=hidden;rotatable=0;points=[[0,0.5],[1,0.5]];portConstraint=eastwest;whiteSpace=wrap;html=1;" vertex="1" parent="zMmYYsfQ7GIVvWLXZn8o-3">
          <mxGeometry y="90" width="200" height="26" as="geometry" />
        </mxCell>
        <mxCell id="zMmYYsfQ7GIVvWLXZn8o-8" value="Utils.SystemData" style="swimlane;fontStyle=0;childLayout=stackLayout;horizontal=1;startSize=26;fillColor=none;horizontalStack=0;resizeParent=1;resizeParentMax=0;resizeLast=0;collapsible=1;marginBottom=0;whiteSpace=wrap;html=1;" vertex="1" parent="1">
          <mxGeometry x="480" y="38" width="210" height="130" as="geometry" />
        </mxCell>
        <mxCell id="zMmYYsfQ7GIVvWLXZn8o-9" value="Instance : Utils.SystemData" style="text;strokeColor=none;fillColor=none;align=left;verticalAlign=top;spacingLeft=4;spacingRight=4;overflow=hidden;rotatable=0;points=[[0,0.5],[1,0.5]];portConstraint=eastwest;whiteSpace=wrap;html=1;" vertex="1" parent="zMmYYsfQ7GIVvWLXZn8o-8">
          <mxGeometry y="26" width="210" height="26" as="geometry" />
        </mxCell>
        <mxCell id="zMmYYsfQ7GIVvWLXZn8o-10" value="sceneMode : Constant.SceneMode" style="text;strokeColor=none;fillColor=none;align=left;verticalAlign=top;spacingLeft=4;spacingRight=4;overflow=hidden;rotatable=0;points=[[0,0.5],[1,0.5]];portConstraint=eastwest;whiteSpace=wrap;html=1;" vertex="1" parent="zMmYYsfQ7GIVvWLXZn8o-8">
          <mxGeometry y="52" width="210" height="26" as="geometry" />
        </mxCell>
        <mxCell id="zMmYYsfQ7GIVvWLXZn8o-11" value="width1 : float" style="text;strokeColor=none;fillColor=none;align=left;verticalAlign=top;spacingLeft=4;spacingRight=4;overflow=hidden;rotatable=0;points=[[0,0.5],[1,0.5]];portConstraint=eastwest;whiteSpace=wrap;html=1;" vertex="1" parent="zMmYYsfQ7GIVvWLXZn8o-8">
          <mxGeometry y="78" width="210" height="26" as="geometry" />
        </mxCell>
        <mxCell id="zMmYYsfQ7GIVvWLXZn8o-12" value="width2 : float" style="text;strokeColor=none;fillColor=none;align=left;verticalAlign=top;spacingLeft=4;spacingRight=4;overflow=hidden;rotatable=0;points=[[0,0.5],[1,0.5]];portConstraint=eastwest;whiteSpace=wrap;html=1;" vertex="1" parent="zMmYYsfQ7GIVvWLXZn8o-8">
          <mxGeometry y="104" width="210" height="26" as="geometry" />
        </mxCell>
        <mxCell id="zMmYYsfQ7GIVvWLXZn8o-13" style="edgeStyle=orthogonalEdgeStyle;rounded=0;orthogonalLoop=1;jettySize=auto;html=1;entryX=-0.01;entryY=0.087;entryDx=0;entryDy=0;entryPerimeter=0;" edge="1" parent="1" source="zMmYYsfQ7GIVvWLXZn8o-5" target="zMmYYsfQ7GIVvWLXZn8o-8">
          <mxGeometry relative="1" as="geometry" />
        </mxCell>
        <mxCell id="zMmYYsfQ7GIVvWLXZn8o-14" value="起動時" style="edgeLabel;html=1;align=center;verticalAlign=middle;resizable=0;points=[];" vertex="1" connectable="0" parent="zMmYYsfQ7GIVvWLXZn8o-13">
          <mxGeometry x="0.6526" y="-1" relative="1" as="geometry">
            <mxPoint as="offset" />
          </mxGeometry>
        </mxCell>
      </root>
    </mxGraphModel>
  </diagram>
</mxfile>
